<svg width="521" height="573" viewBox="0 0 521 573" xmlns="http://www.w3.org/2000/svg"><title>Group</title><g fill="none" fill-rule="evenodd"><path d="M251.992 572.008c53.996 1.864 98.963-20.805 140.004-73.623 21-27.026 49-78.818 49-124.47C440.996 245.499 362.352 140 253 140S65.996 242.703 65.996 371.119c0 48.982 22 91.853 54 131.926 32 40.073 78 67.099 131.996 68.963z" fill="#E90000"/><ellipse fill="#FFF" cx="173.492" cy="390.42" rx="64.5" ry="70.58"/><ellipse fill="#FFF" cx="342.492" cy="391" rx="62.5" ry="67"/><path d="M348.5 279.5s12.492-44.5 70.492-70.5 90-16 90-16M131.992 268.5S124.996 228 66.996 202c-58-26-48-21-48-21" stroke="#E21100" stroke-width="12" stroke-linecap="square"/><path d="M373.998 108.5c-5.5 11-9.5 27-34.002 44.5 7-73-44.004-123-92.004-153-2 44-8 82-36 120-11.604-13.262-43.975-45.843-60-58-16 150-134.242 163.749-79.242 356.749 13-100 62.248-140.249 89.748-165.749 12.502 26.5 27.002 45 39 49 2-49.5 10-71.5 52.494-104-1.998 22.5 27.008 70.5 46.506 94 3.5-17.5 11.506-28.5 32.5-51 11.502 56 119.752 99.999 98.752 182.999 4.025-3.096 59.246-165.999-57.752-315.499z" fill-rule="nonzero" fill="#FFBE32"/><circle fill="#E21100" cx="27" cy="186" r="27"/><circle fill="#E21100" cx="494" cy="190" r="27"/><circle fill="#000" cx="176.75" cy="405.75" r="20.75"/><circle fill="#000" cx="340.499" cy="405.501" r="21.501"/></g></svg>