<svg width="829" height="874" viewBox="0 0 829 874" xmlns="http://www.w3.org/2000/svg"><title>Group 2</title><g fill="none" fill-rule="evenodd"><g transform="translate(153.661)"><path d="M251.992 572.008c53.996 1.864 98.963-20.805 140.004-73.623 21-27.026 49-78.818 49-124.47C440.996 245.499 362.352 140 253 140S65.996 242.703 65.996 371.119c0 48.982 22 91.853 54 131.926 32 40.073 78 67.099 131.996 68.963z" fill="#E90000"/><ellipse fill="#FFF" cx="173.492" cy="390.42" rx="64.5" ry="70.58"/><ellipse fill="#FFF" cx="342.492" cy="391" rx="62.5" ry="67"/><path d="M348.5 279.5s12.492-44.5 70.492-70.5 90-16 90-16M131.992 268.5S124.996 228 66.996 202c-58-26-48-21-48-21" stroke="#E21100" stroke-width="12" stroke-linecap="square"/><path d="M373.998 108.5c-5.5 11-9.5 27-34.002 44.5 7-73-44.004-123-92.004-153-2 44-8 82-36 120-11.604-13.262-43.975-45.843-60-58-16 150-134.242 163.749-79.242 356.749 13-100 62.248-140.249 89.748-165.749 12.502 26.5 27.002 45 39 49 2-49.5 10-71.5 52.494-104-1.998 22.5 27.008 70.5 46.506 94 3.5-17.5 11.506-28.5 32.5-51 11.502 56 119.752 99.999 98.752 182.999 4.025-3.096 59.246-165.999-57.752-315.499z" fill-rule="nonzero" fill="#FFBE32"/><circle fill="#E21100" cx="27" cy="186" r="27"/><circle fill="#E21100" cx="494" cy="190" r="27"/><circle fill="#000" cx="176.75" cy="405.75" r="20.75"/><circle fill="#000" cx="340.499" cy="405.501" r="21.501"/></g><path d="M27.7 764.88H0v-28.54h27.7v-19.025c0-9.327.653-17.767 1.958-25.322 1.306-7.554 3.777-14.036 7.415-19.445 3.637-5.41 8.72-9.56 15.249-12.451 6.528-2.891 15.015-4.337 25.461-4.337 7.648 0 14.736.653 21.264 1.959l-2.238 28.539a115.882 115.882 0 0 0-6.995-1.4 42.501 42.501 0 0 0-6.995-.559c-4.663 0-8.394.746-11.192 2.238-2.797 1.493-4.99 3.498-6.575 6.016s-2.611 5.456-3.077 8.814c-.467 3.357-.7 6.901-.7 10.632v24.342h31.057v28.539H61.275v105.762H27.7V764.88zm87.758-28.54h33.575v134.302h-33.575V736.341zm-4.477-45.606c0-5.409 2.005-10.119 6.016-14.13 4.01-4.01 9.093-6.015 15.248-6.015 6.156 0 11.332 1.912 15.529 5.736 4.197 3.824 6.295 8.627 6.295 14.41 0 5.782-2.098 10.585-6.295 14.409s-9.373 5.736-15.529 5.736c-6.155 0-11.238-2.006-15.248-6.016s-6.016-8.72-6.016-14.13zm71.907 45.607h33.576v21.264h.56c3.73-7.834 9.046-13.896 15.948-18.186 6.901-4.29 14.829-6.436 23.782-6.436 2.052 0 4.057.187 6.016.56 1.958.373 3.963.84 6.015 1.399v32.456a94.083 94.083 0 0 0-8.254-1.819 46.877 46.877 0 0 0-7.974-.699c-7.834 0-14.13 1.446-18.886 4.337-4.757 2.891-8.394 6.202-10.912 9.933-2.518 3.73-4.197 7.46-5.036 11.191-.84 3.731-1.26 6.529-1.26 8.394v71.907h-33.575V736.341zm130.664 78.902c1.12 10.073 5.037 17.907 11.752 23.503 6.715 5.596 14.829 8.394 24.342 8.394 8.394 0 15.435-1.726 21.125-5.177 5.689-3.45 10.678-7.787 14.969-13.01l24.062 18.187c-7.834 9.7-16.601 16.6-26.3 20.705-9.7 4.103-19.866 6.155-30.498 6.155-10.073 0-19.586-1.679-28.54-5.036-8.953-3.358-16.694-8.114-23.223-14.27-6.528-6.155-11.704-13.57-15.528-22.244-3.824-8.673-5.736-18.326-5.736-28.958 0-10.633 1.912-20.285 5.736-28.96 3.824-8.673 9-16.087 15.528-22.243 6.53-6.155 14.27-10.912 23.223-14.27 8.954-3.357 18.467-5.036 28.54-5.036 9.326 0 17.86 1.633 25.6 4.897 7.742 3.264 14.364 7.974 19.866 14.13 5.503 6.155 9.793 13.756 12.87 22.803 3.079 9.046 4.617 19.445 4.617 31.197v9.233H313.552zm68.83-25.181c-.187-9.887-3.264-17.674-9.233-23.363-5.97-5.69-14.27-8.534-24.902-8.534-10.073 0-18.047 2.891-23.922 8.674-5.876 5.782-9.467 13.523-10.773 23.223h68.83zm145.597 62.114h-.839c-4.85 7.648-11.005 13.197-18.466 16.648-7.462 3.45-15.669 5.176-24.622 5.176-6.156 0-12.171-.84-18.047-2.518-5.876-1.679-11.099-4.197-15.669-7.555-4.57-3.357-8.254-7.554-11.052-12.59-2.798-5.037-4.196-10.912-4.196-17.627 0-7.275 1.305-13.477 3.917-18.607 2.611-5.13 6.108-9.42 10.492-12.87 4.383-3.451 9.466-6.202 15.249-8.254 5.782-2.052 11.798-3.591 18.047-4.617a159.997 159.997 0 0 1 18.886-1.959c6.342-.28 12.31-.42 17.907-.42h8.393v-3.637c0-8.393-2.89-14.689-8.673-18.886-5.783-4.197-13.15-6.295-22.104-6.295-7.088 0-13.71 1.259-19.865 3.777-6.156 2.518-11.472 5.922-15.949 10.213l-17.627-17.627c7.461-7.648 16.182-13.15 26.161-16.508 9.98-3.358 20.285-5.037 30.917-5.037 9.513 0 17.534 1.073 24.063 3.218 6.528 2.145 11.938 4.896 16.228 8.254 4.29 3.358 7.6 7.228 9.933 11.611 2.331 4.384 4.01 8.814 5.036 13.29 1.026 4.477 1.632 8.814 1.818 13.011.187 4.197.28 7.881.28 11.052v77.223H527.98v-18.466zm1.295-41.69h-6.995c-4.663 0-9.886.187-15.668.56-5.783.373-11.238 1.26-16.368 2.658-5.13 1.4-9.466 3.451-13.01 6.156-3.545 2.704-5.317 6.482-5.317 11.331 0 3.171.7 5.83 2.099 7.975 1.399 2.145 3.217 3.963 5.456 5.456 2.238 1.492 4.756 2.564 7.554 3.217a36.83 36.83 0 0 0 8.394.98c11.565 0 20.099-2.752 25.601-8.254 5.503-5.503 8.254-13.01 8.254-22.524v-7.554zm59.16-74.145h31.897v21.544h.56c3.17-6.715 8.02-12.544 14.55-17.487 6.528-4.943 15.388-7.415 26.58-7.415 8.953 0 16.554 1.493 22.803 4.477 6.249 2.985 11.332 6.902 15.249 11.751 3.917 4.85 6.715 10.446 8.394 16.788 1.678 6.342 2.518 12.964 2.518 19.866v84.777h-33.576v-67.99c0-3.73-.186-7.88-.56-12.45-.372-4.57-1.352-8.86-2.937-12.871-1.586-4.01-4.057-7.368-7.415-10.073-3.357-2.704-7.927-4.057-13.71-4.057-5.595 0-10.305.933-14.13 2.798-3.823 1.865-6.994 4.384-9.512 7.555-2.518 3.17-4.337 6.808-5.456 10.912-1.12 4.103-1.679 8.393-1.679 12.87v73.306h-33.575V736.341zm141.681 28.539v-28.54h27.7v-38.89h33.575v38.89h36.933v28.54H791.39v58.757c0 6.715 1.26 12.031 3.777 15.948 2.518 3.917 7.508 5.876 14.97 5.876 2.984 0 6.248-.327 9.792-.98 3.544-.652 6.342-1.725 8.394-3.217v28.26c-3.544 1.678-7.88 2.844-13.01 3.497s-9.653.979-13.57.979c-8.954 0-16.275-.98-21.964-2.938-5.69-1.958-10.166-4.943-13.43-8.953-3.265-4.01-5.503-9-6.716-14.97-1.212-5.968-1.818-12.87-1.818-20.704V764.88h-27.7z" fill="#000"/></g></svg>