<svg width="1933" height="573" viewBox="0 0 1933 573" xmlns="http://www.w3.org/2000/svg"><title>Fireant logo</title><g fill="none" fill-rule="evenodd"><path d="M251.992 572.008c53.996 1.864 98.963-20.805 140.004-73.623 21-27.026 49-78.818 49-124.47C440.996 245.499 362.352 140 253 140S65.996 242.703 65.996 371.119c0 48.982 22 91.853 54 131.926 32 40.073 78 67.099 131.996 68.963z" fill="#E90000"/><ellipse fill="#FFF" cx="173.492" cy="390.42" rx="64.5" ry="70.58"/><ellipse fill="#FFF" cx="342.492" cy="391" rx="62.5" ry="67"/><path d="M348.5 279.5s12.492-44.5 70.492-70.5 90-16 90-16M131.992 268.5S124.996 228 66.996 202c-58-26-48-21-48-21" stroke="#E21100" stroke-width="12" stroke-linecap="square"/><path d="M373.998 108.5c-5.5 11-9.5 27-34.002 44.5 7-73-44.004-123-92.004-153-2 44-8 82-36 120-11.604-13.262-43.975-45.843-60-58-16 150-134.242 163.749-79.242 356.749 13-100 62.248-140.249 89.748-165.749 12.502 26.5 27.002 45 39 49 2-49.5 10-71.5 52.494-104-1.998 22.5 27.008 70.5 46.506 94 3.5-17.5 11.506-28.5 32.5-51 11.502 56 119.752 99.999 98.752 182.999 4.025-3.096 59.246-165.999-57.752-315.499z" fill-rule="nonzero" fill="#FFBE32"/><circle fill="#E21100" cx="27" cy="186" r="27"/><circle fill="#E21100" cx="494" cy="190" r="27"/><circle fill="#000" cx="176.75" cy="405.75" r="20.75"/><circle fill="#000" cx="340.499" cy="405.501" r="21.501"/><path d="M702.06 302.46h-42.57V258.6h42.57v-29.24c0-14.333 1.003-27.305 3.01-38.915 2.007-11.61 5.805-21.572 11.395-29.885 5.59-8.313 13.402-14.692 23.435-19.135 10.033-4.443 23.077-6.665 39.13-6.665 11.753 0 22.647 1.003 32.68 3.01l-3.44 43.86c-3.727-.86-7.31-1.577-10.75-2.15-3.44-.573-7.023-.86-10.75-.86-7.167 0-12.9 1.147-17.2 3.44-4.3 2.293-7.668 5.375-10.105 9.245-2.437 3.87-4.013 8.385-4.73 13.545-.717 5.16-1.075 10.607-1.075 16.34v37.41h47.73v43.86h-47.73V465h-51.6V302.46zm134.87-43.86h51.6V465h-51.6V258.6zm-6.88-70.09c0-8.313 3.082-15.552 9.245-21.715 6.163-6.163 13.975-9.245 23.435-9.245 9.46 0 17.415 2.938 23.865 8.815 6.45 5.877 9.675 13.258 9.675 22.145s-3.225 16.268-9.675 22.145c-6.45 5.877-14.405 8.815-23.865 8.815-9.46 0-17.272-3.082-23.435-9.245-6.163-6.163-9.245-13.402-9.245-21.715zm110.51 70.09h51.6v32.68h.86c5.733-12.04 13.903-21.357 24.51-27.95 10.607-6.593 22.79-9.89 36.55-9.89 3.153 0 6.235.287 9.245.86 3.01.573 6.092 1.29 9.245 2.15v49.88a144.591 144.591 0 0 0-12.685-2.795c-4.157-.717-8.242-1.075-12.255-1.075-12.04 0-21.715 2.222-29.025 6.665-7.31 4.443-12.9 9.532-16.77 15.265-3.87 5.733-6.45 11.467-7.74 17.2-1.29 5.733-1.935 10.033-1.935 12.9V465h-51.6V258.6zm200.81 121.26c1.72 15.48 7.74 27.52 18.06 36.12 10.32 8.6 22.79 12.9 37.41 12.9 12.9 0 23.722-2.652 32.465-7.955 8.743-5.303 16.412-11.968 23.005-19.995l36.98 27.95c-12.04 14.907-25.513 25.513-40.42 31.82-14.907 6.307-30.53 9.46-46.87 9.46-15.48 0-30.1-2.58-43.86-7.74-13.76-5.16-25.657-12.47-35.69-21.93-10.033-9.46-17.988-20.855-23.865-34.185-5.877-13.33-8.815-28.165-8.815-44.505 0-16.34 2.938-31.175 8.815-44.505 5.877-13.33 13.832-24.725 23.865-34.185 10.033-9.46 21.93-16.77 35.69-21.93 13.76-5.16 28.38-7.74 43.86-7.74 14.333 0 27.448 2.508 39.345 7.525 11.897 5.017 22.073 12.255 30.53 21.715 8.457 9.46 15.05 21.142 19.78 35.045 4.73 13.903 7.095 29.885 7.095 47.945v14.19h-157.38zm105.78-38.7c-.287-15.193-5.017-27.162-14.19-35.905-9.173-8.743-21.93-13.115-38.27-13.115-15.48 0-27.735 4.443-36.765 13.33-9.03 8.887-14.548 20.783-16.555 35.69h105.78zm223.76 95.46h-1.29c-7.453 11.753-16.913 20.282-28.38 25.585-11.467 5.303-24.08 7.955-37.84 7.955-9.46 0-18.705-1.29-27.735-3.87-9.03-2.58-17.057-6.45-24.08-11.61-7.023-5.16-12.685-11.61-16.985-19.35-4.3-7.74-6.45-16.77-6.45-27.09 0-11.18 2.007-20.712 6.02-28.595 4.013-7.883 9.388-14.477 16.125-19.78 6.737-5.303 14.548-9.532 23.435-12.685 8.887-3.153 18.132-5.518 27.735-7.095a245.89 245.89 0 0 1 29.025-3.01c9.747-.43 18.92-.645 27.52-.645h12.9v-5.59c0-12.9-4.443-22.575-13.33-29.025-8.887-6.45-20.21-9.675-33.97-9.675-10.893 0-21.07 1.935-30.53 5.805-9.46 3.87-17.63 9.102-24.51 15.695l-27.09-27.09c11.467-11.753 24.868-20.21 40.205-25.37s31.175-7.74 47.515-7.74c14.62 0 26.947 1.648 36.98 4.945 10.033 3.297 18.347 7.525 24.94 12.685s11.682 11.108 15.265 17.845c3.583 6.737 6.163 13.545 7.74 20.425 1.577 6.88 2.508 13.545 2.795 19.995.287 6.45.43 12.112.43 16.985V465h-46.44v-28.38zm1.99-64.07h-10.75c-7.167 0-15.193.287-24.08.86-8.887.573-17.272 1.935-25.155 4.085-7.883 2.15-14.548 5.303-19.995 9.46-5.447 4.157-8.17 9.962-8.17 17.415 0 4.873 1.075 8.958 3.225 12.255 2.15 3.297 4.945 6.092 8.385 8.385 3.44 2.293 7.31 3.942 11.61 4.945 4.3 1.003 8.6 1.505 12.9 1.505 17.773 0 30.888-4.228 39.345-12.685 8.457-8.457 12.685-19.995 12.685-34.615v-11.61zm90.92-113.95h49.02v33.11h.86c4.873-10.32 12.327-19.278 22.36-26.875 10.033-7.597 23.65-11.395 40.85-11.395 13.76 0 25.442 2.293 35.045 6.88 9.603 4.587 17.415 10.607 23.435 18.06 6.02 7.453 10.32 16.053 12.9 25.8s3.87 19.923 3.87 30.53V465h-51.6V360.51c0-5.733-.287-12.112-.86-19.135-.573-7.023-2.078-13.617-4.515-19.78s-6.235-11.323-11.395-15.48c-5.16-4.157-12.183-6.235-21.07-6.235-8.6 0-15.838 1.433-21.715 4.3-5.877 2.867-10.75 6.737-14.62 11.61-3.87 4.873-6.665 10.463-8.385 16.77-1.72 6.307-2.58 12.9-2.58 19.78V465h-51.6V258.6zm217.74 43.86V258.6h42.57v-59.77h51.6v59.77h56.76v43.86h-56.76v90.3c0 10.32 1.935 18.49 5.805 24.51 3.87 6.02 11.538 9.03 23.005 9.03 4.587 0 9.603-.502 15.05-1.505 5.447-1.003 9.747-2.652 12.9-4.945v43.43c-5.447 2.58-12.112 4.372-19.995 5.375-7.883 1.003-14.835 1.505-20.855 1.505-13.76 0-25.012-1.505-33.755-4.515-8.743-3.01-15.623-7.597-20.64-13.76-5.017-6.163-8.457-13.832-10.32-23.005-1.863-9.173-2.795-19.78-2.795-31.82v-94.6h-42.57z" fill="#000"/></g></svg>